<svg role="img" viewBox="0 0 24 24" xmlns="http://www.w3.org/2000/svg" aria-labelledby="title"><title id="title">WhatsApp icon</title><path d="M17.472 14.382c-.297-.149-1.758-.867-2.03-.964-.273-.099-.472-.149-.672.149-.198.297-.768.964-.94 1.162-.173.198-.347.223-.644.074-.297-.149-1.255-.463-2.39-1.475-.883-.788-1.48-1.761-1.653-2.059-.173-.297-.018-.458.13-.606.134-.133.297-.347.446-.521.149-.173.198-.297.297-.495.099-.198.05-.372-.025-.521-.075-.149-.672-1.616-.922-2.216-.242-.58-.487-.5-.672-.51l-.573-.01c-.198 0-.521.074-.793.372s-1.04 1.016-1.04 2.479 1.065 2.876 1.213 3.074c.149.198 2.095 3.2 5.076 4.487.709.306 1.262.489 1.694.626.712.226 1.36.194 1.872.118.571-.085 1.758-.719 2.006-1.413.248-.694.248-1.289.173-1.413-.074-.124-.272-.198-.571-.347m-5.421 7.618h-.003a9.87 9.87 0 01-5.031-1.378l-.361-.214-3.741.982.999-3.648-.235-.374a9.86 9.86 0 01-1.51-5.26c.001-5.45 4.436-9.884 9.888-9.884 2.64 0 5.122 1.03 6.988 2.898a9.825 9.825 0 012.893 6.994c-.003 5.45-4.437 9.884-9.887 9.884m8.413-18.297A11.815 11.815 0 0012.051 0C5.495 0 .16 5.335.157 11.892c0 2.096.547 4.142 1.588 5.945L0 24l6.3-1.654a11.86 11.86 0 005.735 1.463h.005c6.556 0 11.891-5.335 11.894-11.893a11.82 11.82 0 00-3.45-8.412"/></svg>
